<?xml version="1.0" encoding="UTF-8"?>
<svg version="1.1" xmlns="http://www.w3.org/2000/svg" width="512" height="512">
<path d="M0 0 C3.75925945 2.67073489 6.84804595 5.89189962 10.03125 9.21484375 C10.94837769 10.14091934 11.86550537 11.06699493 12.8104248 12.02113342 C15.23506533 14.47050712 17.63431339 16.94336026 20.02929688 19.42169189 C21.99314491 21.44576916 23.973896 23.45282946 25.95581818 25.45918941 C30.04609554 29.60000217 34.12293929 33.75397959 38.17382812 37.93334961 C39.24896667 39.0413517 39.24896667 39.0413517 40.3458252 40.17173767 C43.05862265 43.17003349 43.53062738 45.73631143 43.46484375 49.79296875 C42.53328552 54.21591329 39.13965994 56.94565691 36 60 C35.1853125 60.82628906 34.370625 61.65257812 33.53125 62.50390625 C31.37141752 64.68766093 29.19405724 66.85071943 27 69 C27.40992188 69.47050781 27.81984375 69.94101563 28.2421875 70.42578125 C28.78101563 71.04839844 29.31984375 71.67101562 29.875 72.3125 C30.40867187 72.92738281 30.94234375 73.54226562 31.4921875 74.17578125 C34.20176801 77.45395249 35.32886483 79.21787561 34.9375 83.4375 C34.46302039 86.79158001 34.1377474 87.83794423 31.875 90.5 C28.41537793 92.30502021 25.90626662 92.93024524 22 93 C17.7962696 91.15445982 14.46096133 87.9780365 11 85 C9.35 86.65 7.7 88.3 6 90 C7.20958463 92.85901821 8.43515252 94.45587407 10.625 96.75 C12.6978546 99.17960703 13.41182362 100.86213365 13.5625 104.0625 C12.92865244 108.49943295 12.401128 110.1090412 9 113 C4.97725338 114.86586971 2.11000006 115.37740002 -2.125 113.9375 C-5.23882558 111.83905233 -8.11539381 109.40383849 -11 107 C-36.74 132.74 -62.48 158.48 -89 185 C-87.46711669 189.59864994 -85.93924308 193.17108055 -83.6875 197.375 C-73.04258888 218.01950754 -69.69039031 241.52359922 -76 264 C-78.83754265 271.97214363 -83.18653263 279.07383428 -88 286 C-88.42539062 286.61359375 -88.85078125 287.2271875 -89.2890625 287.859375 C-96.20658191 296.77151657 -112.50746049 310.79415795 -124.08911133 312.26538086 C-127.76576973 312.35969714 -129.76991208 312.14196914 -132.9375 310.1875 C-135.61777392 307.34478523 -135.95437565 305.49274294 -136.3125 301.625 C-135.93224808 297.21407778 -135.02946906 296.16914251 -132 293 C-129.55182729 291.251766 -126.97574136 289.75847249 -124.375 288.25 C-111.35257957 280.35882831 -101.02366121 271.10408731 -96.5078125 256.0703125 C-91.9447235 237.46694966 -96.99097891 219.84564103 -105 203 C-107.94563582 204.33341452 -110.07222509 205.80360792 -112.39077759 208.04933167 C-113.36652489 208.98843887 -113.36652489 208.98843887 -114.36198425 209.94651794 C-115.06446793 210.6326265 -115.7669516 211.31873505 -116.49072266 212.02563477 C-117.23911911 212.74964478 -117.98751556 213.47365479 -118.7585907 214.21960449 C-126.58120779 221.8047127 -134.33811624 229.45756146 -142.08984375 237.11499023 C-145.76411811 240.74031323 -149.45795207 244.34374517 -153.17089844 247.92944336 C-157.66362334 252.2685614 -162.11789053 256.64393589 -166.54798508 261.04694939 C-168.23597014 262.71237982 -169.9367644 264.36493711 -171.65071487 266.0036335 C-183.96958586 277.56712871 -183.96958586 277.56712871 -188.00362587 293.37773228 C-187.99972029 294.03042056 -187.9958147 294.68310884 -187.99179077 295.35557556 C-188.01757367 306.80169847 -195.56171962 317.55933092 -203.0625 325.6875 C-215.40381907 337.39808726 -229.49801509 341.52399512 -246.15600586 341.42016602 C-262.39483002 340.96638939 -274.66229057 334.26268009 -285.77734375 322.6015625 C-297.09418521 309.35548796 -300.02794161 293.93149806 -299 277 C-297.25149323 263.34881408 -290.0188431 250.69072221 -279.5 241.9140625 C-270.15747379 234.7744615 -259.6416432 229.13867735 -247.62462711 228.96583462 C-240.09038162 228.79592151 -236.7080737 225.96868966 -231.62866211 220.66625977 C-230.85827606 219.89879425 -230.08789001 219.13132874 -229.29415894 218.34060669 C-226.76649355 215.81177458 -224.2722575 213.2525218 -221.77734375 210.69140625 C-220.02473388 208.92453887 -218.27019257 207.15958543 -216.5138092 205.39646912 C-211.90558258 200.75961143 -207.3254429 196.09593119 -202.75024414 191.42651367 C-198.08130424 186.6669699 -193.37825012 181.94119338 -188.68164062 177.20898438 C-181.843123 170.30705248 -175.0109434 163.39895921 -168.20678711 156.46313477 C-167.48738449 155.73318802 -166.76798187 155.00324127 -166.02677917 154.25117493 C-165.37513794 153.58515259 -164.7234967 152.91913025 -164.05210876 152.23292542 C-163.48344558 151.65349465 -162.91478239 151.07406389 -162.32888699 150.47707462 C-160.89883458 149.01913235 -160.89883458 149.01913235 -160 147 C-160.8765625 146.72027344 -161.753125 146.44054687 -162.65625 146.15234375 C-165.70300785 145.10235127 -168.56475675 143.88583298 -171.5 142.5625 C-186.06309902 136.50797667 -203.31873244 133.85552689 -218.36328125 139.74609375 C-232.19608179 146.32435889 -240.29139053 157.26800758 -248 170 C-252.74846907 177.78050019 -257.69717954 185.3634253 -264 192 C-264.66 192 -265.32 192 -266 192 C-266.22558594 192.556875 -266.45117188 193.11375 -266.68359375 193.6875 C-277.41064842 212.53146547 -307.07719487 226.30061074 -327 232 C-329.78427681 232.71062254 -332.57499369 233.391914 -335.36645508 234.07373047 C-350.01745383 237.67138707 -362.83874351 242.86633665 -375 252 C-375.57492187 252.41121094 -376.14984375 252.82242188 -376.7421875 253.24609375 C-390.80645052 264.16696158 -399.70894235 282.15752578 -402.55859375 299.375 C-406.37305823 330.7008676 -393.96145108 361.82081759 -374.94873047 386.21435547 C-369.9616624 392.43331953 -364.53850859 398.27168154 -359 404 C-358.18861572 404.84860596 -358.18861572 404.84860596 -357.36083984 405.71435547 C-353.18490131 410.00146314 -348.76701816 413.7616943 -344 417.375 C-343.26015869 417.93590332 -342.52031738 418.49680664 -341.75805664 419.07470703 C-317.7642693 436.99123021 -288.8392096 448.99269667 -258.40771484 445.08203125 C-236.76693517 441.85135503 -219.88444706 430.80279272 -206.73828125 413.51953125 C-198.40131399 401.43561241 -193.96943324 388.18742384 -190.87475586 373.97875977 C-189.42370353 367.63580271 -187.63924184 362.75949456 -182 359 C-175.05322129 358.32773109 -175.05322129 358.32773109 -171.0625 360.875 C-167.76972693 364.26755407 -167.74909872 366.6575365 -167.80810547 371.34716797 C-168.16001958 376.21217911 -169.3484205 380.85025729 -170.5625 385.5625 C-170.83280029 386.61808105 -171.10310059 387.67366211 -171.3815918 388.76123047 C-178.76518945 416.49886814 -195.57092878 440.46337769 -220.59765625 455.15234375 C-246.16546771 469.03704504 -275.09781697 470.8011354 -303 463 C-303.7017334 462.80696289 -304.4034668 462.61392578 -305.12646484 462.41503906 C-324.36973022 456.89364985 -342.53144636 446.58720088 -358 434 C-358.5583252 433.55301758 -359.11665039 433.10603516 -359.69189453 432.64550781 C-392.76844796 406.05023562 -418.70046028 368.49146189 -424.3125 325.75 C-427.06200915 299.18022407 -421.84339174 273.71749323 -405.5 252.1875 C-404.34407121 250.78276143 -403.17743754 249.38675977 -402 248 C-401.12988281 246.91332031 -401.12988281 246.91332031 -400.2421875 245.8046875 C-384.67979052 227.1167882 -362.37106126 217.76298959 -339.375 212 C-320.28826847 207.19188022 -304.97265659 198.76642077 -290 186 C-289.18015625 185.32582031 -288.3603125 184.65164062 -287.515625 183.95703125 C-277.80852745 175.68188132 -271.03004569 165.88537744 -264.625 155 C-259.66811445 146.61386694 -253.94499196 139.79722617 -247 133 C-246.34902344 132.31679687 -245.69804687 131.63359375 -245.02734375 130.9296875 C-232.32529694 118.47888997 -214.24781603 114.47091681 -197.08032227 114.57983398 C-179.45923331 115.07258846 -161.48373091 120.52302745 -146.76171875 130.34765625 C-144.97047705 131.23530842 -144.97047705 131.23530842 -143.10028458 130.23613167 C-140.94054749 128.96500897 -139.39988629 127.64624352 -137.63372803 125.87423706 C-136.98875366 125.23201202 -136.3437793 124.58978699 -135.67926025 123.92810059 C-134.98298523 123.22463501 -134.28671021 122.52116943 -133.56933594 121.79638672 C-132.82748047 121.0548233 -132.085625 120.31325989 -131.32128906 119.54922485 C-128.87088061 117.09742329 -126.427632 114.63861395 -123.984375 112.1796875 C-122.28658943 110.47817175 -120.58836171 108.77709708 -118.88970947 107.07644653 C-114.42025084 102.59935194 -109.95683086 98.11628362 -105.49462891 93.63195801 C-100.94014532 89.05701531 -96.37999433 84.48772952 -91.8203125 79.91796875 C-82.87464308 70.95085005 -73.9351471 61.97760292 -65 53 C-65.34933594 52.52369141 -65.69867188 52.04738281 -66.05859375 51.55664062 C-66.51363281 50.92951172 -66.96867187 50.30238281 -67.4375 49.65625 C-67.88996094 49.03556641 -68.34242188 48.41488281 -68.80859375 47.77539062 C-70.39655661 45.40906564 -71 43.8670168 -71 41 C-69.84718323 37.48087511 -68.74121936 34.82063572 -66.25 32.0625 C-62.98872559 30.52245375 -60.56385197 30.62485769 -57 31 C-54.3125 32.375 -54.3125 32.375 -52 34 C-50.67391178 34.68096422 -49.34313399 35.35330586 -48 36 C-46.35 34.02 -44.7 32.04 -43 30 C-44.2065625 28.9790625 -44.2065625 28.9790625 -45.4375 27.9375 C-48.50571448 24.42027853 -49 22.63189461 -49 18 C-47.77776186 14.46908981 -46.6040399 12.53500677 -43.8125 10.0625 C-40.04980885 8.6410389 -36.7316786 8.59640299 -33 10 C-30.88872767 11.5661142 -28.97008415 13.25130511 -27 15 C-26.5968457 14.58637207 -26.19369141 14.17274414 -25.77832031 13.74658203 C-23.94086325 11.86743654 -22.0955569 9.99618964 -20.25 8.125 C-19.29867187 7.14853516 -19.29867187 7.14853516 -18.328125 6.15234375 C-17.709375 5.52714844 -17.090625 4.90195312 -16.453125 4.2578125 C-15.88754883 3.6817627 -15.32197266 3.10571289 -14.73925781 2.51220703 C-10.1188328 -1.50504627 -5.71545642 -1.9762186 0 0 Z M-9.625 27.5 C-10.40875 28.325 -11.1925 29.15 -12 30 C-10.43717018 33.76603869 -8.0936525 36.13639151 -5.2109375 38.984375 C-4.74765045 39.44483215 -4.2843634 39.90528931 -3.80703735 40.37969971 C-2.33434102 41.84125078 -0.85482597 43.29567168 0.625 44.75 C1.62806322 45.74302611 2.63067257 46.73651089 3.6328125 47.73046875 C6.08330835 50.15897941 8.5399667 52.58114675 11 55 C13.31 53.02 15.62 51.04 18 49 C13.33992095 43.41235744 8.39136454 38.20827395 3.25 33.0625 C2.48300781 32.28326172 1.71601563 31.50402344 0.92578125 30.70117188 C0.19230469 29.96576172 -0.54117187 29.23035156 -1.296875 28.47265625 C-2.29219238 27.47117554 -2.29219238 27.47117554 -3.30761719 26.44946289 C-6.26830665 23.91374256 -6.82512045 24.83344805 -9.625 27.5 Z M-28 46 C-29.98 48.31 -31.96 50.62 -34 53 C-26.41 60.59 -18.82 68.18 -11 76 C-6.9915966 73.9957983 -5.58590343 72.50944037 -3 69 C-6.23256976 65.71809541 -9.47157606 62.44273543 -12.71679688 59.17333984 C-13.82049298 58.05956877 -14.92238973 56.94401168 -16.02246094 55.82666016 C-17.60145074 54.22348763 -19.18674114 52.62679089 -20.7734375 51.03125 C-21.26621185 50.52815308 -21.75898621 50.02505615 -22.26669312 49.50671387 C-23.473756 48.29925487 -24.73278596 47.14417071 -26 46 C-26.66 46 -27.32 46 -28 46 Z M-52.625 70.5 C-53.40875 71.325 -54.1925 72.15 -55 73 C-53.43717018 76.76603869 -51.0936525 79.13639151 -48.2109375 81.984375 C-47.74765045 82.44483215 -47.2843634 82.90528931 -46.80703735 83.37969971 C-45.33434102 84.84125078 -43.85482597 86.29567168 -42.375 87.75 C-41.37193678 88.74302611 -40.36932743 89.73651089 -39.3671875 90.73046875 C-36.91669165 93.15897941 -34.4600333 95.58114675 -32 98 C-29.69 96.02 -27.38 94.04 -25 92 C-29.66007905 86.41235744 -34.60863546 81.20827395 -39.75 76.0625 C-40.51699219 75.28326172 -41.28398437 74.50402344 -42.07421875 73.70117188 C-42.80769531 72.96576172 -43.54117187 72.23035156 -44.296875 71.47265625 C-45.29219238 70.47117554 -45.29219238 70.47117554 -46.30761719 69.44946289 C-49.26830665 66.91374256 -49.82512045 67.83344805 -52.625 70.5 Z M-74.95035607 92.82127476 C-75.51552168 93.38935321 -76.08068729 93.95743166 -76.66297913 94.54272461 C-77.2600322 95.13892325 -77.85708526 95.7351219 -78.47223085 96.34938717 C-80.48916653 98.36466465 -82.50248754 100.38351597 -84.51586914 102.40234375 C-85.95420733 103.84096376 -87.39276526 105.2793641 -88.83152771 106.71755981 C-92.7509418 110.63668575 -96.6672544 114.55889803 -100.58304143 118.48164749 C-104.67056185 122.57539841 -108.76089437 126.66633753 -112.85093689 130.75756836 C-120.60192006 138.51166574 -128.35034952 146.26830982 -136.09787792 154.02585888 C-144.91560032 162.85473961 -153.73614577 171.68079761 -162.55693638 180.50661278 C-180.70778025 198.66792308 -198.85505363 216.83279765 -217 235 C-214.57450555 236.95126951 -212.15704423 238.88559692 -209.640625 240.71875 C-202.60931487 245.95776539 -197.94131296 251.83867687 -193 259 C-188.43229576 255.17680348 -184.08066451 251.22442216 -179.88124084 247.00149536 C-179.30764609 246.42875503 -178.73405134 245.85601471 -178.14307493 245.26591861 C-176.24152414 243.36600135 -174.34354516 241.46255743 -172.44555664 239.55908203 C-171.07529835 238.18854138 -169.70481926 236.81822146 -168.33413696 235.44810486 C-164.62788213 231.7421361 -160.92471153 228.0330994 -157.22209859 224.32349253 C-153.34683683 220.44196568 -149.46872971 216.56328381 -145.59092712 212.68429565 C-138.25450538 205.34476989 -130.9206358 198.00269946 -123.587686 190.65970504 C-115.23657874 182.29740778 -106.88262072 173.9379609 -98.52842534 165.57874894 C-81.34911589 148.38899615 -64.17337881 131.19567763 -47 114 C-48.73325074 110.29641485 -50.84239366 107.91327454 -53.75390625 105.015625 C-54.21482162 104.55516785 -54.675737 104.09471069 -55.15061951 103.62030029 C-56.12075118 102.65317817 -57.09330061 101.68847596 -58.06811523 100.72607422 C-59.56622805 99.24631763 -61.0560843 97.75861398 -62.54492188 96.26953125 C-68.48988471 88.82244164 -68.48988471 88.82244164 -74.95035607 92.82127476 Z M-270.3125 262.375 C-277.75776759 271.70226579 -279.02062312 281.33737401 -278 293 C-274.87013018 304.44155731 -269.09130569 311.08862856 -259 317 C-250.01185291 321.73920483 -240.63966685 321.87079129 -231 319 C-227.80337171 317.59249235 -224.91052399 315.92460612 -222 314 C-221.113125 313.4225 -220.22625 312.845 -219.3125 312.25 C-211.62951353 304.77466181 -207.90968925 296.33723285 -207.5 285.75 C-207.73150327 275.63431353 -210.93946696 267.10120838 -217.984375 259.75 C-226.49939177 252.35711723 -235.136997 249.49286752 -246.26953125 249.75390625 C-255.6802093 250.60207895 -263.99954514 255.42757732 -270.3125 262.375 Z " fill="#262626" transform="translate(469,45)"/>
<path d="M0 0 C3.54147728 3.35986306 4.83912142 6.33292786 5.12863445 11.13252354 C5.1303103 11.90360415 5.13198614 12.67468477 5.13371277 13.46913147 C5.14011024 14.80400604 5.14011024 14.80400604 5.14663696 16.16584778 C5.14618378 17.1347142 5.14573059 18.10358063 5.14526367 19.10180664 C5.14862228 20.12835358 5.1519809 21.15490051 5.15544128 22.21255493 C5.16495157 25.61176764 5.16689479 29.01093105 5.16796875 32.41015625 C5.1711825 34.77705404 5.17454666 37.14395163 5.17805481 39.510849 C5.18404714 44.47818461 5.18589472 49.44550283 5.18530273 54.4128418 C5.18520139 60.7588078 5.1988248 67.10466123 5.21607494 73.45060062 C5.22723149 78.34328212 5.22922078 83.23593677 5.22869301 88.12862968 C5.22986872 90.46684594 5.23426744 92.80506299 5.24202538 95.14326668 C5.25189407 98.4264 5.24891959 101.70929392 5.24291992 104.99243164 C5.24853943 105.94712845 5.25415894 106.90182526 5.25994873 107.88545227 C5.20390461 120.03969233 3.26959321 131.57751378 -5.1875 140.8125 C-13.31252865 148.36609807 -22.51236595 150.39975045 -33.26953125 150.2109375 C-37.81116195 149.95413325 -41.06541471 149.22791688 -45 147 C-45.74765625 146.58621094 -46.4953125 146.17242187 -47.265625 145.74609375 C-55.61082831 140.67541558 -60.26591941 134.16585859 -63.3046875 124.921875 C-65.71745048 114.78284854 -63.82523144 105.70868858 -58.71484375 96.74609375 C-55.09485703 91.43207425 -50.58534824 88.09120135 -45 85 C-44.39671875 84.65839844 -43.7934375 84.31679687 -43.171875 83.96484375 C-34.88029982 80.08943361 -24.34170411 81.21943196 -16 84 C-16 64.2 -16 44.4 -16 24 C-22.27 26.31 -28.54 28.62 -35 31 C-38.2049722 32.1225207 -41.40416861 33.23642229 -44.625 34.30859375 C-45.39005859 34.56504166 -46.15511719 34.82148956 -46.94335938 35.08570862 C-48.51154623 35.61030666 -50.08022203 36.13344566 -51.64941406 36.6550293 C-54.05722374 37.45654882 -56.46220386 38.26621706 -58.8671875 39.07617188 C-60.41129675 39.59163011 -61.95556139 40.10662318 -63.5 40.62109375 C-64.21236816 40.86161972 -64.92473633 41.10214569 -65.65869141 41.34996033 C-68.56629359 42.31000299 -70.91555726 43 -74 43 C-73.99111755 44.31829803 -73.98223511 45.63659607 -73.9730835 46.99484253 C-73.89186341 59.44153832 -73.83197002 71.88818006 -73.79275131 84.3350811 C-73.77191049 90.73359124 -73.74365636 97.13188678 -73.69824219 103.53027344 C-73.65466023 109.70945459 -73.63083654 115.8884298 -73.62049103 122.06775284 C-73.61312188 124.42078008 -73.59873176 126.77379653 -73.57707977 129.12673569 C-73.54788244 132.43222833 -73.54405092 135.73687884 -73.54589844 139.04248047 C-73.53151733 140.00705673 -73.51713623 140.971633 -73.50231934 141.96543884 C-73.56512191 152.40533164 -77.20296699 160.21509758 -84.36328125 167.73046875 C-91.96563287 174.27412251 -100.79620075 177.40150094 -110.80078125 177.2109375 C-119.83571557 176.3443541 -127.76231859 172.4433941 -134.01171875 165.890625 C-141.41415393 156.88976042 -143.12497465 148.49481404 -142.26757812 136.98779297 C-141.16885421 128.8255575 -136.94852729 121.50503329 -130.84375 116.0859375 C-121.55353734 109.30408226 -112.88835854 107.30727474 -101.49609375 108.578125 C-99 109 -99 109 -96 110 C-95.99413376 109.05896927 -95.98826752 108.11793854 -95.98222351 107.14839172 C-95.92498695 98.2759471 -95.85222049 89.40374735 -95.76428509 80.53155231 C-95.71957562 75.97035301 -95.68032079 71.40924314 -95.65356445 66.84790039 C-95.62753718 62.44515414 -95.58713894 58.04275195 -95.53681374 53.64021873 C-95.5201411 51.96136953 -95.50862928 50.2824608 -95.50238609 48.60354042 C-95.49274915 46.25005735 -95.46469598 43.89745528 -95.43237305 41.54418945 C-95.43380814 40.8515097 -95.43524323 40.15882996 -95.4367218 39.44515991 C-95.35295208 35.12678023 -94.65838907 32.41905886 -92 29 C-88.72346053 25.87065967 -84.74844863 24.67901719 -80.52514648 23.28857422 C-79.77835632 23.0361496 -79.03156616 22.78372498 -78.262146 22.52365112 C-75.80076844 21.69361664 -73.33601824 20.8741224 -70.87109375 20.0546875 C-69.15742155 19.47909006 -67.44396925 18.90283757 -65.73072815 18.32595825 C-61.2246417 16.81063871 -56.71562124 15.30424227 -52.20593262 13.79968262 C-47.6152997 12.2663679 -43.02750053 10.72462387 -38.43945312 9.18359375 C-5.88725688 -1.74481202 -5.88725688 -1.74481202 0 0 Z M-42 109 C-43.24283781 112.72851342 -43.5280726 116.12746761 -43 120 C-40.77915243 124.35944153 -38.57923841 127.16830464 -34 129 C-29.35328171 129.69700774 -25.93898755 129.4173278 -21.625 127.5 C-18.29531219 124.32886875 -16.89393152 121.48701549 -16 117 C-16.17329537 112.58096802 -17.33348733 109.52360603 -20 106 C-23.78171795 102.67667211 -27.62317335 102.37691274 -32.48828125 102.5078125 C-36.66521636 103.32630989 -39.38908238 105.71838795 -42 109 Z M-119.8125 134.875 C-122.05236347 138.88317674 -122.14677482 142.07042615 -121.4375 146.5625 C-119.45339956 151.30708802 -116.64639032 153.67680484 -112 156 C-106.77050726 156.40226867 -103.39315425 155.9287695 -99 153 C-95.36077987 148.97770406 -94.24344456 145.55791626 -94.4765625 140.25 C-95.40745455 136.24855357 -97.88920678 133.5756797 -101 131 C-108.28369927 126.72975278 -114.23058145 129.1006015 -119.8125 134.875 Z " fill="#272727" transform="translate(142,70)"/>
<path d="M0 0 C2.22412332 1.55268986 4.04860928 3.10281458 6 5 C9.56831853 3.68402437 12.57145694 2.07747912 15.75 0 C25.35454589 -5.78535975 34.84805776 -5.95552372 45.703125 -3.3515625 C55.8541978 0.12789327 64.24648124 8.4772743 69 18 C73.80405146 30.1105936 73.06681179 42.09748947 68 54 C58.40459204 71.35128176 40.10024802 82.49173768 24.3125 93.625 C23.47549561 94.21692139 22.63849121 94.80884277 21.77612305 95.41870117 C9.74167591 103.81225011 9.74167591 103.81225011 3 103 C-0.9791492 101.22108624 -4.45685327 98.52389836 -8 96 C-8.70415039 95.50097168 -9.40830078 95.00194336 -10.13378906 94.48779297 C-20.87504277 86.83005506 -31.20944336 78.84276822 -41 70 C-41.87398437 69.23300781 -42.74796875 68.46601562 -43.6484375 67.67578125 C-51.74377242 60.18557934 -57.34895204 50.01602803 -58.25 38.921875 C-58.65601216 27.40128001 -56.6579987 16.90329105 -48.9765625 7.99609375 C-35.30586073 -5.809694 -17.31451599 -9.9787709 0 0 Z M-30.6875 18.6875 C-35.52574511 23.52574511 -37.25205455 27.15747438 -37.5 33.9375 C-37.20274338 42.14793282 -33.86223846 48.27634873 -28 54 C-24.42874404 57.12409362 -20.73293223 60.07202541 -17 63 C-16.46745605 63.41862305 -15.93491211 63.83724609 -15.38623047 64.26855469 C-8.41258907 69.73701895 -1.32453535 75.00675017 6 80 C11.49111999 76.99364803 16.56104419 73.61363757 21.625 69.9375 C22.4082666 69.36966797 23.1915332 68.80183594 23.99853516 68.21679688 C40.80684019 56.76128071 40.80684019 56.76128071 51 40 C51.80631139 34.05466781 51.32456883 29.01682858 48.34375 23.7578125 C45.36837266 19.86560378 41.59779672 17.53259891 37 16 C30.53860492 15.23983587 26.95431212 17.16880524 22 21 C20.29319053 22.62553283 18.62339805 24.29115995 17 26 C13.77595362 29.22404638 11.52549889 31.32102637 6.9375 31.5625 C1.0352463 30.7193209 -1.26568395 27.91666306 -4.875 23.5 C-8.57873324 19.07451361 -12.39802147 16.7589104 -18 15.125 C-22.88266301 14.92155571 -26.56576041 16.09943095 -30.6875 18.6875 Z " fill="#272727" transform="translate(267,5)"/>
<path d="M0 0 C0.71502686 0.226875 1.43005371 0.45375 2.16674805 0.6875 C3.75381596 1.19745523 5.33775758 1.71721165 6.91894531 2.24511719 C9.82127885 3.21113215 12.73470834 4.13927142 15.6484375 5.0703125 C17.72476773 5.75275065 19.80029813 6.43762733 21.875 7.125 C23.36954712 7.60428955 23.36954712 7.60428955 24.89428711 8.09326172 C33.83157108 11.13910405 33.83157108 11.13910405 36.5625 16.125 C37.22838072 20.78616501 37.30221448 23.70249595 34.5 27.5625 C31.16310764 30.4734061 28.88649417 31.29007556 24.5625 31.125 C20.81119262 30.26114794 17.24040047 28.99971986 13.625 27.6875 C12.65498047 27.34912109 11.68496094 27.01074219 10.68554688 26.66210938 C8.30606483 25.82987674 5.93242802 24.98398345 3.5625 24.125 C3.56694122 25.25315628 3.57138245 26.38131256 3.57595825 27.5436554 C3.61661673 38.20942135 3.64653819 48.87517145 3.66612434 59.54099751 C3.67653248 65.02353983 3.69063714 70.50601926 3.71337891 75.98852539 C3.73521355 81.28589173 3.74709094 86.58319781 3.75225449 91.8806057 C3.75593124 93.89506159 3.76311072 95.90951444 3.77396011 97.92394447 C3.9285703 127.83817091 3.9285703 127.83817091 -5.9375 138.9375 C-6.7625 139.659375 -7.5875 140.38125 -8.4375 141.125 C-9.18 141.805625 -9.9225 142.48625 -10.6875 143.1875 C-19.19962472 149.18467878 -28.26174371 151.16089714 -38.5625 149.5 C-46.98628922 147.48416454 -54.12456817 142.98423288 -59.4375 136.125 C-64.96782091 126.96988326 -66.81973285 118.09040964 -64.9765625 107.46875 C-62.47942442 97.95024719 -56.41514529 90.75715782 -48.4375 85.125 C-43.1293842 82.49024434 -37.60101924 80.98458216 -31.6875 80.9375 C-30.88828125 80.92332031 -30.0890625 80.90914063 -29.265625 80.89453125 C-25.50902752 81.20066281 -22.08820721 82.18388218 -18.4375 83.125 C-18.43385437 82.15891312 -18.43020874 81.19282623 -18.42645264 80.19746399 C-18.38949887 71.08952736 -18.33172217 61.98192872 -18.25359726 52.87424946 C-18.21410107 48.19194964 -18.18192315 43.50983849 -18.16650391 38.82739258 C-18.15135135 34.30787282 -18.11693097 29.78887166 -18.06919098 25.26958275 C-18.05436267 23.54607846 -18.04645815 21.82250014 -18.04561615 20.09893227 C-18.04324902 17.68298793 -18.01619214 15.26847978 -17.98339844 12.8527832 C-17.99094398 11.78571136 -17.99094398 11.78571136 -17.99864197 10.69708252 C-17.89835413 5.91669548 -16.8370654 3.47121236 -13.4375 0.125 C-8.52928185 -2.39450609 -5.0204161 -1.67930295 0 0 Z M-43.3125 108.375 C-44.82407876 112.0699703 -45.02183082 115.18677038 -44.4375 119.125 C-42.40661189 123.8281093 -39.00171761 126.84289119 -34.4375 129.125 C-29.80319181 129.25476063 -25.71355006 128.79082449 -22 125.875 C-18.20601162 121.80340271 -17.41139139 119.7698427 -17.5 114.1875 C-18.32983946 108.96148719 -21.05474259 105.93260907 -25.25 102.75 C-32.91452398 100.56013601 -38.20494103 102.24592923 -43.3125 108.375 Z " fill="#272727" transform="translate(436.4375,340.875)"/>
<path d="M0 0 C7.24691286 4.9633659 13.27060423 12.12409405 19.46484375 18.33203125 C20.54946067 19.4159732 21.63422588 20.49976678 22.71913147 21.5834198 C24.97559437 23.8384186 27.23026401 26.0951907 29.48364258 28.35327148 C32.37428732 31.24965407 35.26945455 34.1414682 38.16594601 37.03200245 C40.39902737 39.2614783 42.62973162 41.49332028 44.8597126 43.72589684 C45.92712552 44.79397693 46.99528204 45.86131443 48.06419182 46.9278965 C49.55035063 48.41152454 51.03328154 49.89830448 52.51538086 51.38598633 C53.35951035 52.23091141 54.20363983 53.07583649 55.073349 53.94636536 C58.05956405 57.12939886 58.41164062 59.51492243 58.33984375 63.89453125 C57.70439083 67.83141771 55.99827129 69.38448674 53 72 C49.03228185 73.22638561 46.96681777 73.39804727 43.11627197 71.81274414 C39.73288922 69.84462091 37.33752928 67.70510144 34.57714844 64.93359375 C34.07229919 64.43078888 33.56744995 63.92798401 33.04730225 63.40994263 C31.393985 61.75961368 29.75161437 60.09884683 28.109375 58.4375 C26.95747373 57.2825381 25.80497813 56.12816869 24.6519165 54.97436523 C22.24348009 52.56133829 19.84002281 50.14350039 17.44042969 47.72167969 C14.36492099 44.61782623 11.28074321 41.5227737 8.19326401 38.43083191 C5.81646396 36.04987601 3.44250821 33.66610239 1.06958771 31.28128052 C-0.06705227 30.13894621 -1.20415995 28.99707707 -2.34174347 27.85568237 C-3.92870566 26.26184579 -5.51223482 24.66468001 -7.09472656 23.06640625 C-7.99596252 22.15834229 -8.89719849 21.25027832 -9.82574463 20.31469727 C-13.69131105 16.19944192 -14.49237546 13.68804854 -14.39453125 8.2265625 C-13.76592115 4.67896097 -11.77876696 3.11715578 -9 1 C-5.73952371 -0.63023814 -3.62198965 -0.4673535 0 0 Z " fill="#262626" transform="translate(120,378)"/>
<path d="M0 0 C6.20054023 3.35862596 10.84064403 8.58215639 15.75 13.5625 C16.61238281 14.42552734 17.47476563 15.28855469 18.36328125 16.17773438 C27.28606406 25.16335368 27.28606406 25.16335368 27.375 30.375 C27.30696946 33.85589619 27.04360709 34.93022866 25.125 38 C21.97451296 40.96516427 19.55626631 41.53267632 15.19116211 41.46728516 C12.47767691 40.88860987 11.3409057 39.90515448 9.31640625 38.0234375 C8.62482422 37.38696289 7.93324219 36.75048828 7.22070312 36.09472656 C6.12145508 35.05783691 6.12145508 35.05783691 5 34 C4.23623047 33.30100586 3.47246094 32.60201172 2.68554688 31.88183594 C0.27925978 29.66102934 -2.08101553 27.39849607 -4.4375 25.125 C-5.25154297 24.37347656 -6.06558594 23.62195313 -6.90429688 22.84765625 C-11.40952543 18.46642481 -13.92845047 15.37170324 -14.30810547 8.98974609 C-13.73231941 5.27131788 -11.70683537 3.51798639 -9 1 C-5.89046621 -0.5547669 -3.43733239 -0.28644437 0 0 Z " fill="#272727" transform="translate(164,365)"/>
<path d="M0 0 C3.5420773 3.09931764 4.84372778 4.88656044 5.5 9.5625 C4.86922578 13.89907279 3.80650145 16.64512391 0.25 19.3125 C-3.0739743 20.32815881 -5.53686262 20.41796486 -9 20 C-12.19886977 18.10437347 -14.36160051 16.65372633 -15.734375 13.09765625 C-16.49424672 9.13872459 -16.15324099 7.30648199 -14.3125 3.625 C-10.08443736 -1.17442246 -6.2236707 -2.09509707 0 0 Z " fill="#272727" transform="translate(316,368)"/>
</svg>
